<svg width="126" height="25" viewBox="0 0 126 25" fill="none" xmlns="http://www.w3.org/2000/svg">
<line x1="2" y1="4.5" x2="2" y2="20.5" stroke="white" stroke-width="4" stroke-linecap="round"/>
<line x1="12" y1="6.5" x2="12" y2="18.5" stroke="white" stroke-width="4" stroke-linecap="round"/>
<line x1="22" y1="8.5" x2="22" y2="16.5" stroke="white" stroke-width="4" stroke-linecap="round"/>
<path d="M41.99 19L40.098 14.138H33.872L32.002 19H30L36.138 3.226H37.92L44.036 19H41.99ZM37.744 7.626C37.7 7.50867 37.6267 7.296 37.524 6.988C37.4213 6.68 37.3187 6.36467 37.216 6.042C37.128 5.70467 37.0547 5.448 36.996 5.272C36.9227 5.56533 36.842 5.866 36.754 6.174C36.6807 6.46733 36.6 6.73867 36.512 6.988C36.4387 7.23733 36.3727 7.45 36.314 7.626L34.532 12.378H39.504L37.744 7.626ZM53.1148 7.208V8.836H47.8568V19H45.9208V7.208H53.1148ZM61.0484 6.988C62.5004 6.988 63.6664 7.494 64.5464 8.506C65.441 9.518 65.8884 11.0433 65.8884 13.082C65.8884 14.4167 65.683 15.546 65.2724 16.47C64.8764 17.3793 64.3117 18.0687 63.5784 18.538C62.8597 18.9927 62.009 19.22 61.0264 19.22C60.425 19.22 59.8897 19.1393 59.4204 18.978C58.951 18.8167 58.5477 18.6113 58.2104 18.362C57.8877 18.098 57.609 17.812 57.3744 17.504H57.2424C57.2717 17.7533 57.301 18.0687 57.3304 18.45C57.3597 18.8313 57.3744 19.1613 57.3744 19.44V24.28H55.4384V7.208H57.0224L57.2864 8.814H57.3744C57.609 8.47667 57.8877 8.16867 58.2104 7.89C58.5477 7.61133 58.9437 7.39133 59.3984 7.23C59.8677 7.06867 60.4177 6.988 61.0484 6.988ZM60.6964 8.616C59.9044 8.616 59.2664 8.77 58.7824 9.078C58.2984 9.37133 57.9464 9.81867 57.7264 10.42C57.5064 11.0213 57.389 11.784 57.3744 12.708V13.082C57.3744 14.05 57.477 14.8713 57.6824 15.546C57.8877 16.2207 58.2324 16.734 58.7164 17.086C59.215 17.438 59.8897 17.614 60.7404 17.614C61.459 17.614 62.0457 17.416 62.5004 17.02C62.9697 16.624 63.3144 16.0887 63.5344 15.414C63.769 14.7247 63.8864 13.94 63.8864 13.06C63.8864 11.7107 63.6224 10.6327 63.0944 9.826C62.581 9.01933 61.7817 8.616 60.6964 8.616ZM79.2255 13.082C79.2255 14.0647 79.0935 14.9373 78.8295 15.7C78.5802 16.448 78.2135 17.086 77.7295 17.614C77.2602 18.142 76.6808 18.5453 75.9915 18.824C75.3168 19.088 74.5615 19.22 73.7255 19.22C72.9482 19.22 72.2295 19.088 71.5695 18.824C70.9095 18.5453 70.3375 18.142 69.8535 17.614C69.3695 17.086 68.9882 16.448 68.7095 15.7C68.4455 14.9373 68.3135 14.0647 68.3135 13.082C68.3135 11.7767 68.5335 10.6767 68.9735 9.782C69.4135 8.87267 70.0442 8.18333 70.8655 7.714C71.6868 7.23 72.6622 6.988 73.7915 6.988C74.8622 6.988 75.8008 7.23 76.6075 7.714C77.4288 8.18333 78.0668 8.87267 78.5215 9.782C78.9908 10.6767 79.2255 11.7767 79.2255 13.082ZM70.3155 13.082C70.3155 14.006 70.4328 14.8127 70.6675 15.502C70.9168 16.1767 71.2982 16.6973 71.8115 17.064C72.3248 17.4307 72.9775 17.614 73.7695 17.614C74.5615 17.614 75.2142 17.4307 75.7275 17.064C76.2408 16.6973 76.6148 16.1767 76.8495 15.502C77.0988 14.8127 77.2235 14.006 77.2235 13.082C77.2235 12.1433 77.0988 11.344 76.8495 10.684C76.6002 10.024 76.2188 9.518 75.7055 9.166C75.2068 8.79933 74.5542 8.616 73.7475 8.616C72.5448 8.616 71.6722 9.012 71.1295 9.804C70.5868 10.596 70.3155 11.6887 70.3155 13.082ZM93.1398 3.292V17.24H95.1418V23.136H93.2498V19H82.4478V23.136H80.5558V17.24H81.7658C82.2938 16.3307 82.7925 15.3113 83.2618 14.182C83.7458 13.0527 84.1712 11.872 84.5378 10.64C84.9045 9.39333 85.2052 8.14667 85.4398 6.9C85.6745 5.65333 85.8212 4.45067 85.8798 3.292H93.1398ZM87.6178 5.074C87.5592 5.92467 87.4125 6.88533 87.1778 7.956C86.9578 9.02667 86.6718 10.1267 86.3198 11.256C85.9825 12.3707 85.6012 13.4487 85.1758 14.49C84.7652 15.5313 84.3252 16.448 83.8558 17.24H91.1818V5.074H87.6178ZM107.757 13.082C107.757 14.0647 107.625 14.9373 107.361 15.7C107.111 16.448 106.745 17.086 106.261 17.614C105.791 18.142 105.212 18.5453 104.523 18.824C103.848 19.088 103.093 19.22 102.257 19.22C101.479 19.22 100.761 19.088 100.101 18.824C99.4408 18.5453 98.8688 18.142 98.3848 17.614C97.9008 17.086 97.5194 16.448 97.2408 15.7C96.9768 14.9373 96.8448 14.0647 96.8448 13.082C96.8448 11.7767 97.0648 10.6767 97.5048 9.782C97.9448 8.87267 98.5754 8.18333 99.3968 7.714C100.218 7.23 101.193 6.988 102.323 6.988C103.393 6.988 104.332 7.23 105.139 7.714C105.96 8.18333 106.598 8.87267 107.053 9.782C107.522 10.6767 107.757 11.7767 107.757 13.082ZM98.8468 13.082C98.8468 14.006 98.9641 14.8127 99.1988 15.502C99.4481 16.1767 99.8294 16.6973 100.343 17.064C100.856 17.4307 101.509 17.614 102.301 17.614C103.093 17.614 103.745 17.4307 104.259 17.064C104.772 16.6973 105.146 16.1767 105.381 15.502C105.63 14.8127 105.755 14.006 105.755 13.082C105.755 12.1433 105.63 11.344 105.381 10.684C105.131 10.024 104.75 9.518 104.237 9.166C103.738 8.79933 103.085 8.616 102.279 8.616C101.076 8.616 100.203 9.012 99.6608 9.804C99.1181 10.596 98.8468 11.6887 98.8468 13.082ZM123.475 7.208V19H121.737V11.476C121.737 11.168 121.744 10.8453 121.759 10.508C121.788 10.1707 121.818 9.84067 121.847 9.518H121.781L117.931 19H116.303L112.563 9.518H112.497C112.526 9.84067 112.541 10.1707 112.541 10.508C112.556 10.8453 112.563 11.19 112.563 11.542V19H110.825V7.208H113.399L117.117 16.69L120.901 7.208H123.475Z" fill="white"/>
</svg>
