<svg width="152" height="33" viewBox="0 0 152 33" fill="none" xmlns="http://www.w3.org/2000/svg">
<path d="M17.866 16.37L14.032 6.344C13.9 6.008 13.762 5.624 13.618 5.192C13.486 4.748 13.354 4.274 13.222 3.77C13.09 4.286 12.952 4.766 12.808 5.21C12.676 5.642 12.544 6.032 12.412 6.38L8.596 16.37H17.866ZM25.462 26H22.492C22.156 26 21.88 25.916 21.664 25.748C21.46 25.58 21.304 25.364 21.196 25.1L18.91 19.106H7.534L5.248 25.1C5.152 25.328 4.99 25.538 4.762 25.73C4.546 25.91 4.276 26 3.952 26H0.982L11.278 0.151998H15.166L25.462 26ZM39.8173 10.376H31.3393V26H27.8293V7.712H39.8173V10.376ZM46.2807 21.5C46.8567 22.256 47.4747 22.784 48.1347 23.084C48.8067 23.384 49.5567 23.534 50.3847 23.534C51.9927 23.534 53.2347 22.958 54.1107 21.806C54.9987 20.642 55.4427 18.95 55.4427 16.73C55.4427 15.566 55.3407 14.576 55.1367 13.76C54.9447 12.932 54.6567 12.26 54.2727 11.744C53.9007 11.216 53.4387 10.832 52.8867 10.592C52.3347 10.34 51.7107 10.214 51.0147 10.214C49.9947 10.214 49.1067 10.442 48.3507 10.898C47.6067 11.354 46.9167 12.002 46.2807 12.842V21.5ZM46.1007 10.448C46.4847 9.992 46.8927 9.578 47.3247 9.206C47.7687 8.822 48.2427 8.498 48.7467 8.234C49.2507 7.958 49.7847 7.748 50.3487 7.604C50.9247 7.448 51.5367 7.37 52.1847 7.37C53.2287 7.37 54.1707 7.574 55.0107 7.982C55.8627 8.39 56.5887 8.99 57.1887 9.782C57.7887 10.574 58.2507 11.552 58.5747 12.716C58.9107 13.88 59.0787 15.218 59.0787 16.73C59.0787 18.086 58.8927 19.346 58.5207 20.51C58.1607 21.662 57.6387 22.664 56.9547 23.516C56.2827 24.368 55.4547 25.04 54.4707 25.532C53.4987 26.012 52.4007 26.252 51.1767 26.252C50.0847 26.252 49.1487 26.072 48.3687 25.712C47.5887 25.352 46.8927 24.848 46.2807 24.2V32.138H42.7707V7.712H44.8767C45.3687 7.712 45.6747 7.946 45.7947 8.414L46.1007 10.448ZM70.7795 7.424C72.1235 7.424 73.3355 7.646 74.4155 8.09C75.5075 8.522 76.4315 9.152 77.1875 9.98C77.9555 10.796 78.5435 11.786 78.9515 12.95C79.3595 14.102 79.5635 15.398 79.5635 16.838C79.5635 18.278 79.3595 19.58 78.9515 20.744C78.5435 21.908 77.9555 22.898 77.1875 23.714C76.4315 24.53 75.5075 25.16 74.4155 25.604C73.3355 26.036 72.1235 26.252 70.7795 26.252C69.4235 26.252 68.1995 26.036 67.1075 25.604C66.0275 25.16 65.1035 24.53 64.3355 23.714C63.5675 22.898 62.9735 21.908 62.5535 20.744C62.1455 19.58 61.9415 18.278 61.9415 16.838C61.9415 15.398 62.1455 14.102 62.5535 12.95C62.9735 11.786 63.5675 10.796 64.3355 9.98C65.1035 9.152 66.0275 8.522 67.1075 8.09C68.1995 7.646 69.4235 7.424 70.7795 7.424ZM70.7795 23.516C72.5075 23.516 73.7975 22.934 74.6495 21.77C75.5015 20.606 75.9275 18.968 75.9275 16.856C75.9275 14.744 75.5015 13.106 74.6495 11.942C73.7975 10.766 72.5075 10.178 70.7795 10.178C69.0275 10.178 67.7195 10.766 66.8555 11.942C66.0035 13.106 65.5775 14.744 65.5775 16.856C65.5775 18.968 66.0035 20.606 66.8555 21.77C67.7195 22.934 69.0275 23.516 70.7795 23.516ZM100.636 22.994V3.158H92.4636C92.3196 5.99 92.1156 8.486 91.8516 10.646C91.5996 12.794 91.2936 14.666 90.9336 16.262C90.5856 17.858 90.1956 19.202 89.7636 20.294C89.3316 21.386 88.8696 22.286 88.3776 22.994H100.636ZM108.664 22.994V31.13C108.664 31.466 108.55 31.736 108.322 31.94C108.094 32.144 107.8 32.246 107.44 32.246H105.154V26H84.7776V31.13C84.7776 31.466 84.6636 31.736 84.4356 31.94C84.2076 32.144 83.9136 32.246 83.5536 32.246H81.2676V22.994H83.9676C84.3276 22.814 84.6876 22.526 85.0476 22.13C85.4076 21.722 85.7556 21.152 86.0916 20.42C86.4276 19.676 86.7396 18.74 87.0276 17.612C87.3276 16.484 87.5976 15.104 87.8376 13.472C88.0776 11.828 88.2816 9.914 88.4496 7.73C88.6296 5.534 88.7676 3.008 88.8636 0.151998H104.488V22.994H108.664ZM118.698 7.424C120.042 7.424 121.254 7.646 122.334 8.09C123.426 8.522 124.35 9.152 125.106 9.98C125.874 10.796 126.462 11.786 126.87 12.95C127.278 14.102 127.482 15.398 127.482 16.838C127.482 18.278 127.278 19.58 126.87 20.744C126.462 21.908 125.874 22.898 125.106 23.714C124.35 24.53 123.426 25.16 122.334 25.604C121.254 26.036 120.042 26.252 118.698 26.252C117.342 26.252 116.118 26.036 115.026 25.604C113.946 25.16 113.022 24.53 112.254 23.714C111.486 22.898 110.892 21.908 110.472 20.744C110.064 19.58 109.86 18.278 109.86 16.838C109.86 15.398 110.064 14.102 110.472 12.95C110.892 11.786 111.486 10.796 112.254 9.98C113.022 9.152 113.946 8.522 115.026 8.09C116.118 7.646 117.342 7.424 118.698 7.424ZM118.698 23.516C120.426 23.516 121.716 22.934 122.568 21.77C123.42 20.606 123.846 18.968 123.846 16.856C123.846 14.744 123.42 13.106 122.568 11.942C121.716 10.766 120.426 10.178 118.698 10.178C116.946 10.178 115.638 10.766 114.774 11.942C113.922 13.106 113.496 14.744 113.496 16.856C113.496 18.968 113.922 20.606 114.774 21.77C115.638 22.934 116.946 23.516 118.698 23.516ZM151.974 7.658V26H148.806V14.372C148.806 14.012 148.824 13.604 148.86 13.148C148.908 12.692 148.974 12.272 149.058 11.888L142.938 22.724C142.83 22.928 142.692 23.09 142.524 23.21C142.356 23.318 142.158 23.372 141.93 23.372H141.534C141.318 23.372 141.12 23.318 140.94 23.21C140.772 23.09 140.634 22.928 140.526 22.724L134.316 11.852C134.388 12.236 134.448 12.662 134.496 13.13C134.544 13.586 134.568 14 134.568 14.372V26H131.4V7.658H134.244C134.484 7.658 134.724 7.712 134.964 7.82C135.204 7.928 135.408 8.138 135.576 8.45L140.922 17.486C141.078 17.774 141.222 18.08 141.354 18.404C141.486 18.728 141.612 19.052 141.732 19.376C141.852 19.052 141.972 18.728 142.092 18.404C142.224 18.08 142.368 17.774 142.524 17.486L147.798 8.45C147.966 8.126 148.17 7.916 148.41 7.82C148.65 7.712 148.89 7.658 149.13 7.658H151.974Z" fill="white"/>
</svg>
